<svg width="0" height="0" class="hidden">
  <symbol version="1.1" xmlns="http://www.w3.org/2000/svg" viewBox="0 0 242 90" id="icon-rss">
    <path d="M137.197 3.257c-6.927 1.609-10.367 5.259-10.401 11.036-0.039 6.727 3.729 9.816 15.812 12.966 5.873 1.53 7.869 4.182 5.091 6.758-3.153 2.922-9.323 
    1.027-10.1-3.105-0.385-2.062-0.366-2.056-6.837-1.696l-5.735 0.318 0.276 1.806c0.425 2.784 2.722 7.082 4.68 8.758 5.802 4.964 21.78 4.455 27.25-0.872l1.6-1.558 0.307 1.811c1.125 6.663 7.892 12.923 
    15.677 14.504l2.5 0.509-1.477 1.935c-4.874 6.384-5.012 19.44-0.276 26.221 7.248 10.375 27.644 10.074 34.355-0.506l1.249-1.969v9.391h31.61v-10.097h-18.878v-29.416h-12.732l-0.025 4.5c-0.022 
    3.676-0.121 4.343-0.548 3.642-2.419-3.968-7.13-7.265-11.748-8.218l-2.489-0.515 2.526-1.898c7.858-5.906 12.752-16.681 11.495-25.307-3.305-22.669-35.958-23.020-48.395-0.523-0.802 1.448-1.485 
    2.68-1.519 2.737s-1.153-0.956-2.489-2.247c-2.77-2.683-4.995-3.665-12.558-5.538-7.037-1.744-8.477-2.967-6.112-5.192 2.25-2.115 7.149-0.745 8.252 2.309 0.647 1.789 0.529 1.772 8.010 
    1.277l4.326-0.287-0.276-1.724c-1.277-7.987-11.329-12.386-22.424-9.807zM2.635 23.268v19.755h12.732v-15.806h1.294c2.042 0 3.277 1.502 7.214 8.781l3.682 6.803 7.079 0.121c3.893 0.067 
    7.076 0.003 7.076-0.141 0-2.225-7.934-15.064-10.136-16.402l-1.207-0.734 2.436-1.274c9.031-4.728 7.321-18.273-2.576-20.396-1.249-0.267-7.574-0.467-14.884-0.467h-12.71v19.755zM195.401 
    6.952c19.87 5.186 18.051 33.064-2.824 43.242-21.268 10.37-40.222-6.654-30.113-27.045 5.898-11.897 20.984-19.316 32.934-16.194zM24.14 12.417c4.472 2.261 1.505 6.435-4.829 6.795l-3.943 
    0.225v-7.585l3.842 0.006c2.199 0.003 4.306 0.242 4.93 0.557zM188.373 15.91c-3.496 0.928-7.051 4.461-7.054 7.009-0.006 4.163 3.322 5.664 8.558 3.862 3.203-1.102 4.019-1.102 4.612 0.003 
    1.004 1.879-2.287 3.794-4.207 2.447-0.965-0.675-4.523 1.454-4.559 2.728-0.056 1.918 4.798 2.644 7.771 1.162 9.442-4.705 6.761-14.805-3.032-11.427-3.915 1.35-4.756 1.409-4.756 0.323 
    0-1.704 2.663-2.936 3.825-1.775 0.475 0.475 4.075-1.912 4.075-2.703 0-1.181-3.189-2.177-5.237-1.631zM174.201 25.383c-2.095 1.516-2.194 1.122 1.648 6.576 2.365 3.355 3.274 5.012 3.184 
    5.797-0.157 1.342-1.662 1.699-2.72 0.644-0.672-0.672-0.847-0.619-2.438 0.745-4.019 3.443 2.090 6.398 6.629 3.209 4.987-3.504 4.995-5.678 0.037-12.918-3.845-5.617-4.022-5.729-6.342-4.050zM13.044 
    49.621c-7.183 1.133-11.388 5.333-11.444 11.43-0.056 6.221 3.977 9.765 13.967 12.265 6.123 1.533 8.139 2.703 8.139 4.719 0 5.678-10.164 5.11-11.239-0.627-0.377-2.002-0.329-1.991-6.812-1.64l-5.749 
    0.312 0.287 1.8c1.311 8.252 6.109 11.686 16.799 12.021 8.477 0.264 11.391-0.557 15.092-4.258l2.534-2.534 0.931 1.257c5.386 7.284 23.58 7.774 29.554 0.793 1.747-2.039 3.707-5.881 3.907-7.65 
    0.141-1.246 0.101-1.268-5.223-2.883l-5.363-1.628-0.72 2.166c-2.453 7.383-11.714 7.467-13.748 0.127-0.692-2.495-0.608-8.454 0.157-11.022 1.845-6.207 9.638-7.481 12.8-2.090 1.319 2.25 0.965 
    2.208 6.95 0.855 5.698-1.288 5.453-1.060 4.154-3.859-5.153-11.087-22.475-13.688-31.66-4.759l-2.562 2.492-1.063-1.814c-2.649-4.523-11.005-6.846-19.682-5.473zM134.342 49.632c-4.863 0.844-9.667 
    3.904-12.381 7.883-0.726 1.066-0.745 0.979-0.768-3.187l-0.023-4.281h-12.732v13.61h-12.732v-13.61h-12.732v39.513h12.732v-15.806h12.732v15.806h12.732v-8.933l1.375 2.073c5.721 8.634 23.414 10.15 
    31.466 2.694 9.318-8.626 7.49-28.249-3.136-33.671-4.101-2.093-11.298-3.004-16.535-2.095zM20.183 57.727c0.734 0.38 1.595 1.409 2.062 2.467l0.802 1.817 8.578-0.413-0.281 2.239c-0.371 2.962-0.537 
    3.074-2.998 1.986-1.159-0.512-4.402-1.505-7.211-2.211-6.646-1.665-7.473-2.022-7.813-3.375-0.63-2.503 3.766-4.112 6.865-2.509zM141.871 59.279c6.502 1.806 7.819 16.729 1.789 20.278-4.503 2.649-10.201 
    0.394-11.537-4.57-2.655-9.863 2.264-17.786 9.748-15.708zM194.951 59.268c7.554 2.098 7.4 19.074-0.191 21.119-6.103 1.642-10.164-2.599-10.133-10.581 0.034-8.294 3.963-12.305 10.325-10.536z"></path>
  </symbol>
  <symbol version="1.1" xmlns="http://www.w3.org/2000/svg" viewBox="0 0 64 64" id="icon-pause">
    <path d="M32 0c-17.673 0-32 14.327-32 32s14.327 32 32 32 32-14.327 32-32-14.327-32-32-32zM32 58c-14.359 0-26-11.641-26-26s11.641-26 26-26 26 11.641 26 26-11.641 26-26 26zM20 20h8v24h-8zM36 20h8v24h-8z"></path>
  </symbol>
  <symbol version="1.1" xmlns="http://www.w3.org/2000/svg" viewBox="0 0 64 64" id="icon-play">
    <path d="M32 0c-17.673 0-32 14.327-32 32s14.327 32 32 32 32-14.327 32-32-14.327-32-32-32zM32 58c-14.359 0-26-11.641-26-26s11.641-26 26-26 26 11.641 26 26-11.641 26-26 26zM24 18l24 14-24 14z"></path>
  </symbol>
  <symbol xmlns="http://www.w3.org/2000/svg" viewBox="0 0 512.002 512.002" version="1.1" id="icon-music">
    <path d="M501.969,5.636c-5.049-4.379-11.751-6.345-18.366-5.406L160.829,46.341c-11.359,1.623-19.795,11.351-19.795,22.825v92.221
			v178.088c-13.656-7.956-29.509-12.537-46.421-12.537c-51.023,0-92.532,41.51-92.532,92.532s41.509,92.532,92.532,92.532
			s92.532-41.51,92.532-92.532V181.383l276.664-39.524v151.506c-13.656-7.956-29.509-12.537-46.421-12.537
			c-51.023,0-92.532,41.51-92.532,92.532s41.509,92.532,92.532,92.532c51.023,0,92.532-41.51,92.532-92.532V115.275V23.054
			C509.918,16.37,507.018,10.015,501.969,5.636z M94.612,465.89c-25.596,0-46.421-20.825-46.421-46.421
			c0-25.596,20.825-46.421,46.421-46.421c25.596,0,46.421,20.825,46.421,46.421C141.033,445.065,120.208,465.89,94.612,465.89z
			M463.808,95.279l-276.664,39.524V89.161l276.664-39.524V95.279z M417.387,419.779c-25.596,0-46.421-20.825-46.421-46.421
			s20.825-46.421,46.421-46.421c25.596,0,46.421,20.825,46.421,46.421C463.808,398.954,442.983,419.779,417.387,419.779z"></path>
  </symbol>
   <symbol xmlns="http://www.w3.org/2000/svg" viewBox="0 0 1024 1024" id="icon-left">
    <path d="M529.408 149.376a29.12 29.12 0 0141.728 0 30.592 30.592 0 010 42.688L259.264 511.936l311.872 319.936a30.592 30.592 0 01-.512 43.264 29.12 29.12 0 01-41.216-.512L197.76 
    534.272a32 32 0 010-44.672l331.648-340.224zm256 0a29.12 29.12 0 0141.728 0 30.592 30.592 0 010 42.688L515.264 511.936l311.872 319.936a30.592 30.592 0 01-.512 43.264 29.12 29.12 0 
    01-41.216-.512L453.76 534.272a32 32 0 010-44.672l331.648-340.224z"></path>
  </symbol>
  <symbol xmlns="http://www.w3.org/2000/svg" viewBox="0 0 1024 1024" id="icon-right">
    <path d="M452.864 149.312a29.12 29.12 0 0141.728.064L826.24 489.664a32 32 0 010 44.672L494.592 874.624a29.12 29.12 0 01-41.728 0 30.592 30.592 0 010-42.752L764.736 512 452.864 
    192a30.592 30.592 0 010-42.688zm-256 0a29.12 29.12 0 0141.728.064L570.24 489.664a32 32 0 010 44.672L238.592 874.624a29.12 29.12 0 01-41.728 0 30.592 30.592 0 010-42.752L508.736 
    512 196.864 192a30.592 30.592 0 010-42.688z"></path>
  </symbol>
  <symbol version="1.1" id="sound-loud" xmlns="http://www.w3.org/2000/svg" xmlns:xlink="http://www.w3.org/1999/xlink" x="0px" y="0px" enable-background="new 0 0 260 228" xml:space="preserve" viewBox="0 0 260 228">
    <path d="M170.81,78.043l15.653-15.653c14.848,12.299,24.323,30.868,24.323,51.61c0,21.04-9.757,39.836-24.974,52.128l-15.68-15.68
	c11.291-8.184,18.655-21.469,18.655-36.448C188.786,99.32,181.719,86.262,170.81,78.043z M236,114
	c0,28.068-12.569,53.253-32.371,70.231l15.584,15.584C242.982,178.82,258,148.133,258,114c0-33.836-14.757-64.286-38.168-85.265
	L204.257,44.31C223.696,61.28,236,86.229,236,114z M146,2L56.4,66H2v96h54.4l89.6,64V2z"></path>
  </symbol>
  <symbol xmlns="http://www.w3.org/2000/svg" viewBox="0 0 15 15" id="sound-on">
    <path d="M8.74641 1.06494C8.90313 1.1537 9 1.31989 9 1.5V13.5C9 13.6801 8.9031 13.8463 8.74635 13.9351C8.58959 14.0239 8.39722 14.0214 8.24275 13.9287L3.36151 11H1.5C0.672066 
    11 0 10.329 0 9.5V5.49739C0 4.66798 0.672491 3.99804 1.5 3.99804H3.36159L8.24288 1.07118C8.39735 0.978558 8.58969 0.976173 8.74641 1.06494Z"></path>
    <path d="M13.8535 4.14438L13.4998 3.79094L12.793 4.49827L13.1444 4.84953L13.1466 4.85184C13.1502 4.85561 13.1571 4.86308 13.1669 4.87426C13.1864 4.89663 13.2175 4.93374 13.2564 
    4.98555C13.3342 5.08924 13.4428 5.2512 13.5529 5.47128C13.7723 5.90979 14.0001 6.58318 14.0001 7.49609C14.0001 8.409 13.7723 9.08238 13.5529 9.5209C13.4428 9.74097 13.3342 9.90294 
    13.2564 10.0066C13.2175 10.0584 13.1864 10.0955 13.1669 10.1179C13.1571 10.1291 13.1502 10.1366 13.1466 10.1403L13.1445 10.1426L12.793 10.4939L13.4998 11.2012L13.8535 10.8478L13.5001 
    10.4941C13.8535 10.8478 13.8533 10.848 13.8535 10.8478L13.8543 10.8471L13.8551 10.8462L13.857 10.8443L13.862 10.8392L13.876 10.8245C13.8871 10.8127 13.9017 10.7967 13.9192 10.7767C13.9543 
    10.7366 14.0014 10.68 14.0562 10.6069C14.1659 10.4607 14.3073 10.2479 14.4472 9.96835C14.7278 9.40751 15.0001 8.58188 15.0001 7.49609C15.0001 6.4103 14.7278 5.58467 14.4472 
    5.02383C14.3073 4.74423 14.1659 4.53144 14.0562 4.3853C14.0014 4.31219 13.9543 4.25561 13.9192 4.21551C13.9017 4.19546 13.8871 4.17951 13.876 4.16767L13.862 4.15296L13.857 
    4.1479L13.8551 4.14595L13.8543 4.14511C13.8541 4.14493 13.8535 4.14438 13.5001 4.49804L13.8535 4.14438Z"></path>
  </symbol>
  <symbol version="1.1" id="icon-mute" xmlns="http://www.w3.org/2000/svg" xmlns:xlink="http://www.w3.org/1999/xlink" x="0px" y="0px" xml:space="preserve" viewBox="0 0 518.516 518.516">
    <g>
      <g>
        <path d="M257.269,78.412L91.494,196.757H26.775C12.01,196.757,0,208.844,0,223.532v71.451c0,14.765,12.087,26.774,26.775,26.774
			h64.719l165.775,118.346c12.086,8.645,21.727,3.596,21.727-11.169V89.581C279.072,74.816,269.355,69.768,257.269,78.412z"></path>
        <path d="M452.115,260.329l62.5-62.501c5.201-5.202,5.201-13.846,0-19.048l-12.623-12.623c-5.201-5.202-13.846-5.202-19.049,0
			l-62.5,62.5l-62.041-62.042c-5.201-5.202-13.846-5.202-19.049,0l-12.623,12.623c-5.201,5.202-5.201,13.847,0,19.048l62.043,62.042
			L326.73,322.37c-5.201,5.202-5.201,13.847,0,19.049l12.623,12.622c5.203,5.202,13.848,5.202,19.049,0L420.443,292l62.041,62.041
			c5.203,5.202,13.848,5.202,19.049,0l12.623-12.622c5.201-5.202,5.201-13.847,0-19.049L452.115,260.329z"></path>
      </g>
    </g>
  </symbol>
</svg>